<svg width="156" height="31" viewBox="0 0 156 31" fill="none" xmlns="http://www.w3.org/2000/svg">
<path fill-rule="evenodd" clip-rule="evenodd" d="M16.1689 24.5551C16.1689 25.0392 15.7733 25.4309 15.2854 25.4309C14.7979 25.4309 14.4019 25.0392 14.4019 24.5551C14.4019 19.7921 10.4923 15.9171 5.68685 15.9171C5.19928 15.9171 4.80372 15.5254 4.80372 15.0417C4.80372 14.558 5.19928 14.1662 5.68685 14.1662C10.4923 14.1662 14.4019 10.2909 14.4019 5.5279C14.4019 5.04454 14.7979 4.65244 15.2854 4.65244C15.7733 4.65244 16.1689 5.04454 16.1689 5.5279C16.1689 10.2909 20.0782 14.1662 24.8833 14.1662H30.3235C29.8642 6.27829 23.2465 0 15.1757 0C6.80779 0 0 6.7478 0 15.0417C0 23.3359 6.80779 30.0834 15.1757 30.0834C23.2465 30.0834 29.8642 23.8054 30.3235 15.9171H24.8833C20.0782 15.9171 16.1689 19.7921 16.1689 24.5551" fill="white"/>
<path fill-rule="evenodd" clip-rule="evenodd" d="M121.698 9.81068C121.698 8.44304 121.309 7.44344 120.531 6.81221C119.752 6.18133 118.643 5.86572 117.204 5.86572H116.044V14.4494H117.16C118.599 14.4494 119.716 14.0786 120.509 13.3365C121.302 12.595 121.698 11.4197 121.698 9.81068V9.81068ZM131.848 25.0565H123.963C123.8 25.0565 123.646 24.9732 123.556 24.8384C122.241 22.8594 121.142 21.2753 120.26 20.0854C119.345 18.8526 118.208 17.4264 116.848 15.8084H116.043V22.0366C116.043 22.3831 116.109 22.6772 116.241 22.9178C116.373 23.1588 116.625 23.3612 116.997 23.5252C117.183 23.6022 117.475 23.6818 117.871 23.7635L118.507 23.8943C118.731 23.941 118.892 24.1359 118.892 24.3618V25.0565H107.195V24.384C107.195 24.1282 107.39 23.9124 107.649 23.8832L108.898 23.8069C109.363 23.7538 109.693 23.6886 109.889 23.6116C110.261 23.4576 110.511 23.2627 110.638 23.0264C110.766 22.7901 110.829 22.4896 110.829 22.1233V7.65797C110.829 7.3111 110.775 7.02204 110.667 6.79079C110.56 6.55955 110.3 6.35754 109.889 6.18411C109.576 6.05907 109.206 5.95286 108.78 5.86615L108.161 5.7401C107.936 5.69405 107.774 5.49877 107.774 5.2729V4.55127H119.465C122.079 4.55127 124.064 4.95326 125.42 5.75758C126.776 6.56224 127.454 7.77863 127.454 9.40643C127.454 10.8423 127.035 11.9958 126.198 12.8674C125.361 13.7396 124.086 14.4209 122.372 14.9123C123.038 15.76 123.814 16.7428 124.7 17.8604C125.586 18.9779 126.509 20.1194 127.468 21.285C127.772 21.6608 128.186 22.1209 128.71 22.6648C129.233 23.2093 129.86 23.544 130.262 23.6691C130.487 23.737 130.92 23.7948 131.268 23.8428L131.408 23.8623C131.66 23.8976 131.848 24.1104 131.848 24.3615V25.0565Z" fill="white"/>
<path fill-rule="evenodd" clip-rule="evenodd" d="M62.8935 19.2513C61.9428 20.7393 60.8894 21.8502 59.7331 22.5846C58.5765 23.319 57.5043 23.8507 56.0259 23.8507C55.0119 23.8507 54.158 23.6591 53.3238 23.3156C52.4893 22.9718 51.6922 22.3654 51.0773 21.6317C50.589 21.0489 50.2526 20.3659 49.9704 19.6674C49.6782 18.9445 49.5015 18.1714 49.0439 17.524C48.6336 16.9429 48.0943 16.4451 47.4685 16.0845C47.0919 15.8673 46.6844 15.7006 46.2588 15.5961C45.8692 15.5006 45.4576 15.4711 45.0388 15.469C44.7763 15.468 44.5298 15.3228 44.4617 15.0916C44.3585 14.7407 44.6452 14.4244 45.0119 14.4244C45.0289 14.4244 45.0459 14.4244 45.063 14.4244C46.1815 14.415 47.2737 13.9851 48.1318 13.2836C49.8328 11.8931 49.6268 9.63345 50.713 7.9075C51.5686 6.54658 53.2578 5.5053 55.2431 5.5053C56.8376 5.5053 58.1893 6.04275 59.298 7.1173C60.3541 8.14077 61.2666 9.71748 62.0351 11.8474C62.1046 12.0393 62.2905 12.1718 62.5016 12.1718H63.5452V4.66468H62.2026C62.0862 4.66468 61.9738 4.70434 61.8846 4.77627L60.9067 5.63101C60.5639 5.45388 59.4822 4.64183 57.8574 4.12018C55.967 3.5135 54.1508 3.45636 52.5111 3.70205C49.5666 4.14337 46.459 6.04308 44.7896 8.5841C43.4937 10.5557 42.8413 12.5102 42.8413 15.1551C42.8413 19.3552 45.3823 22.1278 46.2962 22.9724C47.1774 23.7868 48.8212 24.9817 50.2594 25.4704C51.697 25.9588 53.0916 26.1749 54.7409 26.1749C56.1154 26.1749 57.3157 25.8163 58.3068 25.4617C62.03 24.1283 63.7437 21.2415 64.1635 20.5723C64.3058 20.3454 64.2367 20.0499 64.0028 19.9111L62.8935 19.2513Z" fill="white"/>
<path fill-rule="evenodd" clip-rule="evenodd" d="M83.1194 19.99C83.2839 19.39 83.3905 18.9887 83.3905 18.9887C83.4075 18.7137 83.1865 18.4818 82.908 18.4818H81.8845C81.5719 19.224 80.3714 22.1646 79.8913 22.6681C79.433 23.1481 78.7827 23.3108 78.1552 23.4466C77.3714 23.6163 76.5917 23.7464 75.7861 23.7397C75.0986 23.7346 74.2563 23.7074 73.6723 23.3084C73.4183 23.135 73.2478 22.8654 73.1599 22.4991C73.0721 22.133 73.0278 21.6322 73.0278 20.996V7.51377C73.0278 7.17665 73.0915 6.87549 73.2185 6.61064C73.3451 6.34578 73.5991 6.1505 73.9795 6.02546C74.2917 5.92933 74.6604 5.85438 75.0847 5.80128L75.767 5.71658C76.0088 5.68632 76.1899 5.48365 76.1899 5.24299V4.55127H64.7864V5.26988C64.7864 5.49844 64.9505 5.69473 65.1776 5.73842L65.8041 5.85909C66.2287 5.9411 66.592 6.04966 66.8947 6.18444C67.3046 6.36729 67.563 6.57232 67.6703 6.79852C67.7775 7.02506 67.8317 7.31143 67.8317 7.6583V22.1236C67.8317 22.4991 67.7629 22.8076 67.6264 23.0483C67.4898 23.2889 67.246 23.4771 66.8947 23.6116C66.7482 23.6694 66.4456 23.7299 65.9873 23.7924C65.7077 23.8307 65.4503 23.8623 65.215 23.8882C64.9696 23.9148 64.7864 24.1181 64.7864 24.3618V25.0569H77.07H78.3084H81.3796L83.1194 19.99Z" fill="white"/>
<path fill-rule="evenodd" clip-rule="evenodd" d="M90.7769 16.8749L93.7392 9.56579L96.7456 16.8749H90.7769ZM107.061 23.8815L106.68 23.8009C106.318 23.7249 106.001 23.611 105.728 23.4587C105.367 23.25 105.089 23.0292 104.894 22.7962C104.699 22.5636 104.537 22.3045 104.411 22.0195C103.65 20.2717 102.728 18.0678 101.644 15.4075C100.882 13.5353 98.6139 8.07279 97.6228 5.6874C97.8189 5.62488 97.9605 5.45077 97.9605 5.2407V4.54932H96.6105H95.3654H94.2224C92.8461 7.77937 91.5897 10.7338 90.4529 13.4126C89.316 16.0914 88.1815 18.7659 87.0494 21.4353C86.8638 21.8914 86.6319 22.2857 86.3541 22.6181C86.0756 22.9505 85.7365 23.2308 85.3367 23.4587C85.1025 23.6016 84.7828 23.7132 84.3779 23.7935L83.6755 23.933C83.4494 23.9777 83.2874 24.1736 83.2874 24.4008V25.0549H91.807L91.8066 24.375C91.8066 24.133 91.6211 23.9279 91.3776 23.9014C90.4981 23.8056 89.8539 23.6651 89.4447 23.4799C88.9717 23.2665 88.7354 23.0077 88.7354 22.7035C88.7354 22.6087 88.7525 22.4423 88.7869 22.2047C88.8209 21.9674 88.9302 21.5825 89.1144 21.0505C89.2601 20.6421 89.4321 20.1766 89.6309 19.6542C89.8301 19.1319 90.0119 18.6755 90.1771 18.2859H97.348L99.1206 22.4756C99.1887 22.6373 99.2302 22.7653 99.2448 22.8604C99.2595 22.9552 99.267 23.0409 99.267 23.1166C99.267 23.3357 98.9115 23.5185 98.2002 23.6654C97.6715 23.775 97.1938 23.8547 96.7671 23.9034C96.5244 23.9313 96.3449 24.135 96.3449 24.3756V25.0549H107.443V24.3481C107.443 24.1229 107.284 23.9283 107.061 23.8815V23.8815Z" fill="white"/>
<path fill-rule="evenodd" clip-rule="evenodd" d="M138.904 16.8747L141.867 9.56554L144.873 16.8747H138.904ZM155.188 23.8813L154.807 23.8006C154.446 23.7247 154.129 23.6107 153.856 23.4585C153.495 23.2497 153.216 23.0289 153.021 22.796C152.826 22.5634 152.665 22.3043 152.538 22.0192C151.777 20.2714 150.855 18.0675 149.771 15.4072C149.009 13.5351 146.741 8.07255 145.75 5.68715C145.946 5.62463 146.088 5.45053 146.088 5.24046V4.54907H144.738H143.493H142.35C140.973 7.77912 139.717 10.7336 138.58 13.4124C137.443 16.0912 136.309 18.7657 135.177 21.4351C134.991 21.8912 134.759 22.2854 134.481 22.6179C134.203 22.9503 133.864 23.2306 133.464 23.4585C133.23 23.6013 132.91 23.7129 132.505 23.7932L131.803 23.9327C131.577 23.9774 131.415 24.1734 131.415 24.4006V25.0547H139.934V24.3747C139.934 24.1327 139.748 23.9277 139.505 23.9011C138.625 23.8053 137.981 23.6648 137.572 23.4796C137.099 23.2662 136.863 23.0074 136.863 22.7032C136.863 22.6084 136.88 22.4421 136.914 22.2044C136.948 21.9671 137.057 21.5823 137.242 21.0502C137.387 20.6418 137.559 20.1763 137.758 19.654C137.957 19.1317 138.139 18.6752 138.304 18.2857H145.475L147.248 22.4753C147.316 22.637 147.357 22.7651 147.372 22.8602C147.387 22.955 147.394 23.0407 147.394 23.1163C147.394 23.3355 147.039 23.5183 146.328 23.6652C145.799 23.7748 145.321 23.8544 144.894 23.9031C144.652 23.931 144.472 24.1347 144.472 24.3754V25.0547H155.57V24.3478C155.57 24.1226 155.411 23.928 155.188 23.8813V23.8813Z" fill="white"/>
</svg>
